<?xml version="1.0" encoding="UTF-8" standalone="no"?>
<!-- Created with Inkscape (http://www.inkscape.org/) -->

<svg
   xmlns:inkscape="http://www.inkscape.org/namespaces/inkscape"
   width="45.370567mm"
   height="36.553837mm"
   viewBox="0 0 55.370567 46.553837"
   version="1.1"
   id="svg4007"
   inkscape:version="0.92.1 r"
   sodipodi:docname="butterfly.svg">
  <defs
     id="defs4001">
    <clipPath
       clipPathUnits="userSpaceOnUse"
       id="clipPath224">
      <path
         d="m 5811.2,5864.54 c -38,-1.83 -75.81,-3.82 -105.61,-13.82 -356.58,-80.02 -518.96,-475.28 -565.06,-611.97 -1.6,11.57 -2.04,21.27 -1.79,29.78 8.72,8.84 14.13,21 14.13,34.43 0,18.63 -10.51,34.65 -25.82,42.95 0.45,42.98 7.01,166.42 64.15,213.35 0.98,-0.41 2.07,-0.66 3.22,-0.66 4.62,0 8.36,3.75 8.36,8.38 0,4.6 -3.74,8.36 -8.36,8.36 -4.64,0 -8.37,-3.76 -8.37,-8.36 0,-1.01 0.25,-1.92 0.56,-2.77 -58.47,-48.3 -65.8,-168.85 -66.31,-215.24 -5.18,1.86 -10.68,3.06 -16.49,3.06 -5.88,0 -11.45,-1.22 -16.67,-3.09 -0.53,47.42 -8.15,172.72 -70.55,218.58 -0.3,4.35 -3.83,7.82 -8.26,7.82 -4.62,0 -8.37,-3.76 -8.37,-8.36 0,-4.63 3.75,-8.38 8.37,-8.38 2.24,0 4.28,0.91 5.77,2.36 59.16,-45.55 65.85,-171.74 66.28,-215.13 -15.22,-8.35 -25.65,-24.32 -25.65,-42.87 0,-11.59 4.03,-22.18 10.72,-30.56 l -1.9,1.43 c -5.56,-3.3 -8.13,-9.6 -15.13,-11.51 -0.11,6.41 -1.06,12.36 -2.59,17.98 -68.88,452.61 -422.88,554.61 -422.88,554.61 h -0.07 c -60.21,24.17 -127.92,40.85 -203.43,49.69 -10.1,-42.24 -46.59,-58.11 -52.73,-104.36 h -0.04 c -21.57,0 -39.03,-30.94 -39.03,-69.14 0,-3.39 0.17,-6.65 0.43,-9.92 -5.34,-38.88 -6.87,-83.77 3.98,-114.64 3.13,-15.4 7.6,-31.83 13.65,-49.21 l 0.14,-0.66 c 0.71,-2.12 1.51,-4.14 2.25,-6.23 0.4,-1.06 0.78,-2.14 1.2,-3.25 4.03,-10.93 8.43,-21.4 13.15,-31.52 1.02,-2.26 2.05,-4.49 3.14,-6.77 l 0.44,-0.95 c 5.38,-11.32 11.3,-22.93 18.03,-34.99 v -0.04 c 27.15,-50.85 54.38,-99.17 55.46,-170.51 0.66,-42.93 -8.72,-88.59 1.94,-122.13 8.56,-33.03 32.96,-92.61 98.44,-98.69 10.85,-1 22.6,-1.47 34.83,-1.51 9.92,-4.12 19,-10.75 25.37,-18.55 -71.64,-67.9 -142.48,-177 -73.6,-281.01 22.67,-34.26 67.2,-52.5 93.68,-86.98 23.88,-31.12 25.85,-65.35 53.53,-87.01 57.07,-14.51 121.42,-16.17 168.23,6.6 19.25,6.17 36.74,13.37 51.71,20.4 20.49,7.06 38.35,17.31 53.99,30.09 l 0.03,0.04 v 0.02 c 77.66,63.5 99.76,188.84 114.13,290.8 15.72,-11.05 10.2,-43.33 33.45,-46.83 34.29,18.46 2.02,62.48 46.83,66.9 -3.98,-254.62 127.76,-406.45 374.72,-388.09 0,0 118.56,96.31 141.84,177.95 l 0.02,0.06 c 44.37,92.75 32.28,225.07 -54.88,276.99 102.68,57.9 196.55,124.6 167.27,314.49 18.98,23.99 40.04,54.14 59.27,87.8 11.75,19.44 21.11,38.13 28.43,55.96 44.16,99.75 59.29,214.87 -34.17,291.15 10.62,33.22 -7.92,58.61 -13.38,93.68 z"
         id="path222"
         inkscape:connector-curvature="0" />
    </clipPath>
    <linearGradient
       x1="0"
       y1="0"
       x2="1"
       y2="0"
       gradientUnits="userSpaceOnUse"
       gradientTransform="matrix(1569.56,0,0,-1569.56,4323.96,5224.79)"
       spreadMethod="pad"
       id="linearGradient230">
      <stop
         style="stop-opacity:1;stop-color:#51ade5"
         offset="0"
         id="stop226" />
      <stop
         style="stop-opacity:1;stop-color:#3872c1"
         offset="1"
         id="stop228" />
    </linearGradient>
  </defs>
  <sodipodi:namedview
     id="base"
     pagecolor="#ffffff"
     bordercolor="#666666"
     borderopacity="1.0"
     inkscape:pageopacity="0.0"
     inkscape:pageshadow="2"
     inkscape:zoom="0.49497475"
     inkscape:cx="612.57639"
     inkscape:cy="-197.49278"
     inkscape:document-units="mm"
     inkscape:current-layer="layer1"
     showgrid="false"
     inkscape:window-width="1920"
     inkscape:window-height="1020"
     inkscape:window-x="0"
     inkscape:window-y="32"
     inkscape:window-maximized="1" />
  <metadata
     id="metadata4004">
    <rdf:RDF>
      <cc:Work
         rdf:about="">
        <dc:format>image/svg+xml</dc:format>
        <dc:title></dc:title>
      </cc:Work>
    </rdf:RDF>
  </metadata>
  <g
     inkscape:label="Layer 1"
     inkscape:groupmode="layer"
     id="layer1"
     transform="translate(-63.784954,-49.205226)">
    <g
       clip-path="url(#clipPath224)"
       id="g220"
       transform="matrix(0.03527778,0,0,-0.03527778,-88.75488,256.80085)">
      <path
         inkscape:connector-curvature="0"
         id="path232"
         style="fill:url(#linearGradient230);fill-opacity:1;fill-rule:nonzero;stroke:none"
         d="m 5811.2,5864.54 c -38,-1.83 -75.81,-3.82 -105.61,-13.82 -356.58,-80.02 -518.96,-475.28 -565.06,-611.97 -1.6,11.57 -2.04,21.27 -1.79,29.78 8.72,8.84 14.13,21 14.13,34.43 0,18.63 -10.51,34.65 -25.82,42.95 0.45,42.98 7.01,166.42 64.15,213.35 0.98,-0.41 2.07,-0.66 3.22,-0.66 4.62,0 8.36,3.75 8.36,8.38 0,4.6 -3.74,8.36 -8.36,8.36 -4.64,0 -8.37,-3.76 -8.37,-8.36 0,-1.01 0.25,-1.92 0.56,-2.77 -58.47,-48.3 -65.8,-168.85 -66.31,-215.24 -5.18,1.86 -10.68,3.06 -16.49,3.06 -5.88,0 -11.45,-1.22 -16.67,-3.09 -0.53,47.42 -8.15,172.72 -70.55,218.58 -0.3,4.35 -3.83,7.82 -8.26,7.82 -4.62,0 -8.37,-3.76 -8.37,-8.36 0,-4.63 3.75,-8.38 8.37,-8.38 2.24,0 4.28,0.91 5.77,2.36 59.16,-45.55 65.85,-171.74 66.28,-215.13 -15.22,-8.35 -25.65,-24.32 -25.65,-42.87 0,-11.59 4.03,-22.18 10.72,-30.56 l -1.9,1.43 c -5.56,-3.3 -8.13,-9.6 -15.13,-11.51 -0.11,6.41 -1.06,12.36 -2.59,17.98 -68.88,452.61 -422.88,554.61 -422.88,554.61 h -0.07 c -60.21,24.17 -127.92,40.85 -203.43,49.69 -10.1,-42.24 -46.59,-58.11 -52.73,-104.36 h -0.04 c -21.57,0 -39.03,-30.94 -39.03,-69.14 0,-3.39 0.17,-6.65 0.43,-9.92 -5.34,-38.88 -6.87,-83.77 3.98,-114.64 3.13,-15.4 7.6,-31.83 13.65,-49.21 l 0.14,-0.66 c 0.71,-2.12 1.51,-4.14 2.25,-6.23 0.4,-1.06 0.78,-2.14 1.2,-3.25 4.03,-10.93 8.43,-21.4 13.15,-31.52 1.02,-2.26 2.05,-4.49 3.14,-6.77 l 0.44,-0.95 c 5.38,-11.32 11.3,-22.93 18.03,-34.99 v -0.04 c 27.15,-50.85 54.38,-99.17 55.46,-170.51 0.66,-42.93 -8.72,-88.59 1.94,-122.13 8.56,-33.03 32.96,-92.61 98.44,-98.69 10.85,-1 22.6,-1.47 34.83,-1.51 9.92,-4.12 19,-10.75 25.37,-18.55 -71.64,-67.9 -142.48,-177 -73.6,-281.01 22.67,-34.26 67.2,-52.5 93.68,-86.98 23.88,-31.12 25.85,-65.35 53.53,-87.01 57.07,-14.51 121.42,-16.17 168.23,6.6 19.25,6.17 36.74,13.37 51.71,20.4 20.49,7.06 38.35,17.31 53.99,30.09 l 0.03,0.04 v 0.02 c 77.66,63.5 99.76,188.84 114.13,290.8 15.72,-11.05 10.2,-43.33 33.45,-46.83 34.29,18.46 2.02,62.48 46.83,66.9 -3.98,-254.62 127.76,-406.45 374.72,-388.09 0,0 118.56,96.31 141.84,177.95 l 0.02,0.06 c 44.37,92.75 32.28,225.07 -54.88,276.99 102.68,57.9 196.55,124.6 167.27,314.49 18.98,23.99 40.04,54.14 59.27,87.8 11.75,19.44 21.11,38.13 28.43,55.96 44.16,99.75 59.29,214.87 -34.17,291.15 10.62,33.22 -7.92,58.61 -13.38,93.68" />
    </g>
  </g>
</svg>
